<?xml version="1.0" encoding="UTF-8"?>
<svg xmlns="http://www.w3.org/2000/svg" viewBox="0 0 737 117.51" id="gucci-logo">
  <path fill="currentColor" d="M15.5,384c0-33.53,26.81-58.74,62.46-58.74a65.87,65.87,0,0,1,38.74,12c6.4,4.44,9.35,7.81,9.35,11.89v19.56h-.14c-9.84-23.36-27.68-37.9-47.94-37.9-24.15,0-41.91,22.43-41.91,53.22,0,31,18,52.87,42.91,52.87,15.38,0,29-10.53,29-21.42V402.2c0-5.73-2.3-10.31-6.47-12.75v-.14h31.06v.14c-4.17,2.44-6.47,7-6.47,12.75V418c0,4.44-3,9.32-13,15.18a70.72,70.72,0,0,1-35.66,9.6C42.1,442.73,15.5,417.52,15.5,384Zm202.42,47.64c-7.84-6.52-12.22-15.47-12.22-26.65V341.73c0-5.73-2.3-10.31-6.47-12.75v-.14h31.06V329c-4.17,2.44-6.47,7-6.47,12.75v60.53c0,9.74,3,17.41,8.55,23,6.33,6.37,15.89,10.11,27.74,10.25,22.07.22,36.37-12.68,36.37-31.52V341.73c0-5.73-2.3-10.31-6.47-12.75v-.14h18.41V329c-4.17,2.44-6.47,7-6.47,12.75v62.33c0,23.06-18.76,38.69-47.09,38.69C238.76,442.73,226.4,438.58,217.92,431.62Zm152.89-47.56c0-33.59,26.81-58.82,62.46-58.82a66,66,0,0,1,38.74,12c6.4,4.44,9.35,7.81,9.35,11.89v19.56h-.14c-9.84-23.36-27.68-37.9-48.31-37.9-23.79,0-41.55,22.43-41.55,53.22s17.76,53,42.26,53c19.77,0,38.45-14.47,50.61-38.47h.14L481.71,419c-.51,3.87-3.3,7.38-9.7,11.82a66,66,0,0,1-38.74,12C397.19,442.59,370.81,417.52,370.81,384.06Zm175.46,0c0-33.59,26.81-58.82,62.46-58.82a66,66,0,0,1,38.74,12c6.4,4.44,9.35,7.81,9.35,11.89v19.56h-.14c-9.84-23.36-27.68-37.9-48.31-37.9-23.79,0-41.55,22.43-41.55,53.22s17.76,53,42.27,53c19.77,0,38.45-14.47,50.61-38.47h.14L657.17,419c-.51,3.87-3.3,7.38-9.71,11.82a66,66,0,0,1-38.74,12C572.66,442.59,546.27,417.52,546.27,384.06Zm181.65,42.2V341.73c0-5.73-2.3-10.31-6.48-12.75v-.14H752.5V329c-4.17,2.44-6.47,7-6.47,12.75v84.54c0,5.73,2.3,10.31,6.47,12.75v.14H721.44V439C725.62,436.57,727.92,432,727.92,426.26Z" transform="translate(-15.5 -325.25)"/>
</svg>