<?xml version="1.0" encoding="UTF-8"?>
<svg xmlns="http://www.w3.org/2000/svg" viewBox="0 0 283.48 60.55" id="versace-logo">
  <path fill="currentColor" d="M 283.48,55.85 H 263.85 V 34.1 h 15.44 V 28.37 H 263.85 V 6.85 H 283.48 V 1.09 H 252.22 V 61.64 H 283.48 Z m -34.19,-38 c -0.36,-12.08 -8.85,-17.85 -20.07,-17.85 -18.48,0 -23.61,14.71 -23.61,31.24 0,17.39 5.54,31.42 24,31.42 9.63,0 19.26,-4.77 19.57,-17.75 H 239.48 c -0.14,6.85 -3.23,14 -9.81,14 -10.58,0 -11.67,-15.48 -11.67,-27.1 v -0.78 c 0,-8.94 0.23,-27.29 10.94,-27.29 7.22,0 9,8.45 9.26,14.13 z M 188.88,1.09 h -9 L 159.28,61.64 h 5.77 l 6.72,-20 h 17.43 l 5.95,20 h 12.71 z m -15.21,34.87 7,-20.93 h 0.5 L 187.48,35.96 Z m -13,7.08 c 0,-8.81 -4.54,-14.76 -14.39,-17.39 l -5,-1.32 c -5.81,-1.54 -10.44,-3.86 -10.44,-10.44 0,-5.86 3.72,-8.76 8.22,-8.76 4.5,0 9.62,2.9 12.66,8.62 l 6.36,-6.44 a 22.74,22.74 0 0 0 -16.57,-7.18 c -10.03,0 -19.51,6.81 -19.51,19.51 0,11.26 7.9,15.17 15.62,17.26 l 3.54,1 c 6.72,1.81 9.72,6.31 9.72,10.76 0,6.36 -4.4,9.72 -9.4,9.72 -6.45,0 -11.44,-5.22 -14.21,-10.58 -6.58,6.31 -6.67,6.44 -6.67,6.44 5.08,6.72 13.53,8.54 19.79,8.54 12.94,0 20.25,-8.76 20.25,-19.66 M 107.48,33.28 a 15.82,15.82 0 0 0 10.81,-15.21 c 0,-8.45 -5.95,-17 -19,-17 H 79.48 V 61.64 h 11.63 V 35.96 h 5 L 108.2,61.64 h 12.8 z m -1,-14.71 c 0,7.62 -2.82,13.12 -10.17,13.12 h -5.13 v -26.2 h 5.13 c 7.35,0 10.17,5.45 10.17,13.08 m -29.7,37.28 H 57.16 V 34.1 h 15.44 V 28.37 H 57.16 V 6.85 H 76.78 V 1.09 H 45.54 V 61.64 H 76.78 Z M 38,1.09 25.34,47.76 h -0.5 L 12.76,1.09 H 0 L 17.12,61.64 H 26.48 L 43.78,1.09 z"/>
</svg>